<svg xmlns="http://www.w3.org/2000/svg" width="22.5" height="22.5" viewBox="0 0 22.5 22.5">
  <path id="Icon_awesome-check-circle" data-name="Icon awesome-check-circle" d="M23.063,11.812A11.25,11.25,0,1,1,11.812.563,11.25,11.25,0,0,1,23.063,11.812ZM10.511,17.769l8.347-8.347a.726.726,0,0,0,0-1.026L17.832,7.37a.726.726,0,0,0-1.026,0L10,14.177,6.82,11a.726.726,0,0,0-1.026,0L4.767,12.025a.726.726,0,0,0,0,1.026l4.718,4.718a.726.726,0,0,0,1.026,0Z" transform="translate(-0.563 -0.563)" fill="#0db80d"/>
</svg>
