<svg xmlns="http://www.w3.org/2000/svg" xmlns:xlink="http://www.w3.org/1999/xlink" width="1136.1" height="536" viewBox="0 0 1136.1 536">
  <defs>
    <clipPath id="clip-path">
      <rect id="Rectangle_158" data-name="Rectangle 158" width="1044.6" height="301.091" fill="none"/>
    </clipPath>
    <clipPath id="clip-path-2">
      <rect id="Rectangle_157" data-name="Rectangle 157" width="1044.598" height="301.091" fill="none"/>
    </clipPath>
  </defs>
  <g id="Group_306" data-name="Group 306" transform="translate(-317 -2018)">
    <g id="Group_300" data-name="Group 300" transform="translate(408.5 2147)">
      <g id="Group_299" data-name="Group 299" clip-path="url(#clip-path)">
        <g id="Group_298" data-name="Group 298">
          <g id="Group_297" data-name="Group 297" clip-path="url(#clip-path-2)">
            <g id="Group_296" data-name="Group 296" opacity="0.8">
              <g id="Group_295" data-name="Group 295">
                <g id="Group_294" data-name="Group 294" clip-path="url(#clip-path)">
                  <line id="Line_5" data-name="Line 5" x1="3.99" transform="translate(962.546 290.092)" fill="none" stroke="#fff" stroke-width="2" stroke-dasharray="8 6"/>
                  <path id="Path_63399" data-name="Path 63399" d="M1044.551,300.092l-212.885-10c-63.09,0-114.233-46.951-114.233-104.868V120.585A119.585,119.585,0,0,0,597.848,1h0A119.585,119.585,0,0,0,478.262,120.585V159c0,60.243-53.2,109.077-118.82,109.077S240.621,219.241,240.621,159V113.117C240.621,51.2,185.941,1,118.489,1A117.489,117.489,0,0,0,1,118.489V268.075" fill="none" stroke="#fff" stroke-width="2" stroke-dasharray="8 6"/>
                </g>
              </g>
            </g>
          </g>
        </g>
      </g>
    </g>
    <text id="Enter_Recipient_Details" data-name="Enter Recipient Details" transform="translate(677 2491)" fill="#fff" font-size="18" font-family="Inter-Bold, Inter" font-weight="700"><tspan x="0" y="0">Enter Recipient Details</tspan></text>
    <text id="Make_Payment" data-name="Make Payment" transform="translate(943 2093)" fill="#fff" font-size="18" font-family="Inter-Bold, Inter" font-weight="700"><tspan x="0" y="0">Make Payment</tspan></text>
    <g id="Group_292" data-name="Group 292" transform="translate(-4 292)">
      <text id="Create_Your_Account" data-name="Create Your Account" transform="translate(321 2199)" fill="#fff" font-size="18" font-family="Inter-Bold, Inter" font-weight="700"><tspan x="0" y="0">Create Your Account</tspan></text>
      <g id="Group_14" data-name="Group 14" transform="translate(59.715 -6.615)">
        <path id="Path_63255" data-name="Path 63255" d="M-10.887-41.841h-2.135v-8.207h2.135a4.1,4.1,0,0,1,4.1,4.1,4.1,4.1,0,0,1-4.1,4.1" transform="translate(381.369 2137.335)" fill="#f2ca91"/>
        <path id="Path_63256" data-name="Path 63256" d="M-20.919-41.841h2.135v-8.207h-2.135a4.1,4.1,0,0,0-4.1,4.1,4.1,4.1,0,0,0,4.1,4.1" transform="translate(356.314 2137.335)" fill="#f2ca91"/>
        <path id="Path_63257" data-name="Path 63257" d="M0-323.247v-29.412a12.331,12.331,0,0,1,8.471-11.712l16.76-5.525a4.11,4.11,0,0,0,2.824-3.9v-12.852H45.113V-373.8a4.111,4.111,0,0,0,2.824,3.9l16.76,5.525a12.331,12.331,0,0,1,8.471,11.712v19.387L57.753-338.81v16.076a1.541,1.541,0,0,1-1.541,1.541H2.055A2.055,2.055,0,0,1,0-323.247" transform="translate(316.361 2488.422)" fill="#24afea"/>
        <path id="Path_63258" data-name="Path 63258" d="M-131.275-113.6l-16.76-5.525a4.11,4.11,0,0,1-2.824-3.9v-12.852l-6.166,3.083v12.852a4.111,4.111,0,0,0,2.824,3.9l16.76,5.525A12.331,12.331,0,0,1-128.97-98.8v14.089L-122.8-82.5v-19.387a12.331,12.331,0,0,0-8.471-11.712" transform="translate(512.333 2237.647)" fill="#58cdff"/>
        <path id="Path_63260" data-name="Path 63260" d="M0-88.748a15.258,15.258,0,0,0,13.329,7.827,15.258,15.258,0,0,0,13.329-7.827L24.682-89.4a4.111,4.111,0,0,1-2.824-3.9v-12.852H4.8V-93.3a4.111,4.111,0,0,1-2.824,3.9Z" transform="translate(339.616 2207.926)" fill="#fce0a2"/>
        <path id="Path_63261" data-name="Path 63261" d="M0-31.434v13.948A15.411,15.411,0,0,0,15.409-2.072,15.411,15.411,0,0,0,30.817-17.486V-31.434L26.362-35.9a5.8,5.8,0,0,0-4.1-1.7H8.567a5.8,5.8,0,0,0-4.1,1.7Z" transform="translate(337.53 2115.528)" fill="#fce0a2"/>
        <path id="Path_63262" data-name="Path 63262" d="M-99.294-8.676a5.8,5.8,0,0,0-4.1-1.7h-6.166a5.8,5.8,0,0,1,4.1,1.7L-101-4.212V9.736a13.471,13.471,0,0,1-3.526,9.813,13.569,13.569,0,0,1-14.24,3.03,15.974,15.974,0,0,0,6.959,2.493,14.927,14.927,0,0,0,1.564.079A15.411,15.411,0,0,0-94.839,9.736V-4.212Z" transform="translate(463.186 2088.306)" fill="#f2ca91"/>
        <path id="Path_63263" data-name="Path 63263" d="M-82.777-147.74H-96.958a2.055,2.055,0,0,1-2.055-2.055v-24.869a2.055,2.055,0,0,1,2.055-2.055h14.181a2.055,2.055,0,0,1,2.055,2.055V-149.8a2.055,2.055,0,0,1-2.055,2.055" transform="translate(451.65 2288.765)" fill="#fff"/>
        <path id="Path_63265" data-name="Path 63265" d="M-10.247-6.065A5.385,5.385,0,0,0-11.294,1.2L4.234,23.551a6.222,6.222,0,1,0,9.992-7.409L-2.645-5.208a5.386,5.386,0,0,0-7.6-.857" transform="translate(374.016 2136.103)" fill="#24afea"/>
        <path id="Path_63264" data-name="Path 63264" d="M-31.434,0H-37.6a2.055,2.055,0,0,1,2.055,2.055V26.924A2.055,2.055,0,0,1-37.6,28.979h6.166a2.055,2.055,0,0,0,2.055-2.055V2.055A2.055,2.055,0,0,0-31.434,0" transform="translate(400.307 2112.046)" fill="#cff0ff"/>
        <path id="Path_63266" data-name="Path 63266" d="M-123.266-119.279l-16.871-21.351a5.385,5.385,0,0,0-7.307-1.076,5.389,5.389,0,0,1,1.141,1.076l16.871,21.351a6.226,6.226,0,0,1-1.794,9.262,6.218,6.218,0,0,0,4.842.564,6.223,6.223,0,0,0,3.118-9.825" transform="translate(511.507 2271.524)" fill="#58cdff"/>
        <path id="Path_63267" data-name="Path 63267" d="M-49-10.434a5.386,5.386,0,0,0-7.6-.857A5.386,5.386,0,0,0-57.65-4.022L-54.637.315-54.563.2-46.2-6.887Z" transform="translate(420.372 2141.329)" fill="#f2ca91"/>
        <path id="Path_63268" data-name="Path 63268" d="M-36.061-9.03a5.382,5.382,0,0,0-3.98-1.771,5.363,5.363,0,0,0-3.094.969,5.379,5.379,0,0,1,1.141,1.076l5.276,6.676,3.693-3.129c-.3-.378-2.735-3.491-3.037-3.822" transform="translate(407.198 2139.65)" fill="#ffc4b6"/>
        <path id="Path_63269" data-name="Path 63269" d="M-222.878-55.826c0-2.865-2-5.187-4.471-5.187h-.006a.484.484,0,0,1-.492-.489c0-.029,0-.058,0-.087,0-2.865-2-5.187-4.471-5.187a4.221,4.221,0,0,0-3.339,1.738.485.485,0,0,1-.387.193.485.485,0,0,1-.387-.193,4.22,4.22,0,0,0-3.339-1.738,4.22,4.22,0,0,0-3.339,1.738.485.485,0,0,1-.387.193.485.485,0,0,1-.387-.193,4.221,4.221,0,0,0-3.339-1.738,4.221,4.221,0,0,0-3.339,1.738.485.485,0,0,1-.387.193.485.485,0,0,1-.387-.193,4.221,4.221,0,0,0-3.339-1.738,4.416,4.416,0,0,0-3.905,2.661.476.476,0,0,1-.5.261,3.91,3.91,0,0,0-.562-.041c-2.469,0-4.471,2.322-4.471,5.187a5.736,5.736,0,0,0,.834,3.015.481.481,0,0,1-.245.7,5.175,5.175,0,0,0-3.073,4.927c0,2.865,2,5.187,4.471,5.187a3.879,3.879,0,0,0,.562-.041.477.477,0,0,1,.5.261,4.416,4.416,0,0,0,3.905,2.661,4.416,4.416,0,0,0,3.905-2.661.477.477,0,0,1,.5-.261,3.879,3.879,0,0,0,.562.041,4.317,4.317,0,0,0,3.643-2.18.483.483,0,0,1,.81-.032,5.028,5.028,0,0,0,4.066,2.213,5.085,5.085,0,0,0,4.245-2.477.48.48,0,0,1,.83.035,4.37,4.37,0,0,0,3.793,2.441,3.88,3.88,0,0,0,.562-.041.477.477,0,0,1,.5.261,4.416,4.416,0,0,0,3.905,2.661,4.5,4.5,0,0,0,4.084-3.077.5.5,0,0,1,.235-.262,5.28,5.28,0,0,0,2.636-4.73,5.8,5.8,0,0,0-.637-2.669.463.463,0,0,1,0-.424,5.8,5.8,0,0,0,.637-2.669" transform="translate(597.682 2130.318)" fill="#f9a058"/>
        <path id="Path_63270" data-name="Path 63270" d="M-60.586-69.436a5.8,5.8,0,0,0,.637-2.669c0-2.865-2-5.187-4.471-5.187h-.006a.484.484,0,0,1-.492-.489c0-.029,0-.058,0-.087,0-2.865-2-5.187-4.471-5.187a4.152,4.152,0,0,0-3.082,1.433,5.594,5.594,0,0,1,1.388,3.754c0,.029,0,.058,0,.087a.484.484,0,0,0,.492.489h.006c2.469,0,4.471,2.322,4.471,5.187a5.8,5.8,0,0,1-.637,2.669.464.464,0,0,0,0,.424,5.8,5.8,0,0,1,.637,2.67,5.279,5.279,0,0,1-2.636,4.729.5.5,0,0,0-.235.263,5.261,5.261,0,0,1-1,1.641A4.151,4.151,0,0,0-66.9-58.273,4.5,4.5,0,0,0-62.82-61.35a.5.5,0,0,1,.235-.263,5.279,5.279,0,0,0,2.636-4.729,5.8,5.8,0,0,0-.637-2.67.464.464,0,0,1,0-.424" transform="translate(434.753 2146.597)" fill="#ef8d43"/>
        <path id="Path_63271" data-name="Path 63271" d="M-224.379-156.485v2.975a1.541,1.541,0,0,0,1.541,1.541,1.541,1.541,0,0,0,1.541-1.541v-2.975a1.541,1.541,0,0,0-1.541-1.541,1.541,1.541,0,0,0-1.541,1.541m-3.661,10.338a4.657,4.657,0,0,1-2.281.573,4.657,4.657,0,0,1-2.183-.573,1.541,1.541,0,0,0-2.093.609,1.541,1.541,0,0,0,.609,2.093,7.748,7.748,0,0,0,3.635.953h.082a7.742,7.742,0,0,0,3.714-.954,1.541,1.541,0,0,0,.61-2.093,1.541,1.541,0,0,0-2.093-.61m32.816,46.405c-.059-.078-15.452-19.553-15.517-19.63v-6.965l8.106,2.672a10.772,10.772,0,0,1,7.411,10.249Zm-21.977-10.1-2.023-2.911a3.857,3.857,0,0,1,.747-5.189,3.873,3.873,0,0,1,5.426.612l1.88,2.378Zm-4.554-1.152.9,1.3h-7.665a.514.514,0,0,1-.514-.514v-24.869a.514.514,0,0,1,.514-.514h14.181a.514.514,0,0,1,.514.514V-121.5a6.954,6.954,0,0,0-6.585,1.158,6.95,6.95,0,0,0-1.346,9.35m-10.361-12.852a13.814,13.814,0,0,1-9.094-5.321l.072-.024a5.642,5.642,0,0,0,3.883-5.369v-1.126a16.808,16.808,0,0,0,5.138,1.4Zm-13.093-40.342c-.514-1.067-1.414-1.092-2.451-1.092-1.615,0-2.93-1.635-2.93-3.646a3.676,3.676,0,0,1,2.081-3.487,2.026,2.026,0,0,0,1.2-1.246,2.01,2.01,0,0,0-.195-1.706,4.189,4.189,0,0,1-.6-2.206c0-2.128,1.472-3.879,3.269-3.621a2.012,2.012,0,0,0,2.112-1.118,2.9,2.9,0,0,1,2.516-1.789,2.672,2.672,0,0,1,2.116,1.135,2.016,2.016,0,0,0,1.61.8,2.016,2.016,0,0,0,1.609-.8,2.672,2.672,0,0,1,2.116-1.136,2.672,2.672,0,0,1,2.116,1.135,2.016,2.016,0,0,0,1.61.8h0a2.016,2.016,0,0,0,1.61-.8A2.671,2.671,0,0,1-225.3-184.1a2.671,2.671,0,0,1,2.116,1.135,2.016,2.016,0,0,0,1.61.8h0a2.016,2.016,0,0,0,1.61-.8,2.672,2.672,0,0,1,2.116-1.136c1.615,0,2.93,1.635,2.93,3.646v.063a2,2,0,0,0,.581,1.449,2.052,2.052,0,0,0,1.455.605h0c1.615,0,2.93,1.635,2.93,3.646a4.272,4.272,0,0,1-.464,1.96,2,2,0,0,0,0,1.843,4.273,4.273,0,0,1,.464,1.96,3.748,3.748,0,0,1-1.808,3.363,2.039,2.039,0,0,0-.96,1.076,3.648,3.648,0,0,1-.834,1.295c-1.391,1.37-3.454.82-4.328-.995a2.007,2.007,0,0,0-1.815-1.139c-.211,0-.426.046-.637.046a2.837,2.837,0,0,1-2.436-1.631,2.037,2.037,0,0,0-1.708-1.066,2,2,0,0,0-1.778.93,3.537,3.537,0,0,1-2.947,1.768,3.5,3.5,0,0,1-2.814-1.57,2.022,2.022,0,0,0-1.718-.846,2.028,2.028,0,0,0-1.658.97,2.7,2.7,0,0,1-2.67,1.421,2.01,2.01,0,0,0-2.112,1.118,2.9,2.9,0,0,1-2.516,1.789,2.912,2.912,0,0,1-2.516-1.789m-2.013,8.959c-1.644.112-3.156-.792-3.156-2.562a2.667,2.667,0,0,1,3.156-2.562Zm33.9,0v-4.487a5.761,5.761,0,0,0,1.092-.587,2.566,2.566,0,0,1,2.064,2.513,2.7,2.7,0,0,1-3.156,2.562M-192.142-94c0-.009,0-.017,0-.026v-19.387a13.85,13.85,0,0,0-9.528-13.177l-9.072-2.991v-5.495a3.6,3.6,0,0,0-3.6-3.6h-14.181a3.589,3.589,0,0,0-2.816,1.365,13.923,13.923,0,0,1-12.8-13.828v-8.373a5.429,5.429,0,0,0,1.447.2,5.847,5.847,0,0,0,4.936-2.882h.032a5.685,5.685,0,0,0,4.107-1.811A6.373,6.373,0,0,0-229.2-162.2a6.45,6.45,0,0,0,4.591-1.991,5.666,5.666,0,0,0,4.277,1.991h.032a5.976,5.976,0,0,0,3.9,2.78v8.278a13.8,13.8,0,0,1-2.367,7.755,1.541,1.541,0,0,0,.415,2.14,1.542,1.542,0,0,0,2.14-.414,16.875,16.875,0,0,0,2.9-9.481v-1.006a5.757,5.757,0,0,0,6.239-5.645,5.65,5.65,0,0,0-3.025-5c.039-.078.079-.155.115-.235a6.916,6.916,0,0,0,3.122-5.9,7.429,7.429,0,0,0-.577-2.882,7.426,7.426,0,0,0,.577-2.881,6.563,6.563,0,0,0-5.018-6.635,6.3,6.3,0,0,0-5.962-5.856,5.619,5.619,0,0,0-3.726,1.444,5.619,5.619,0,0,0-3.726-1.444,5.619,5.619,0,0,0-3.726,1.444,5.619,5.619,0,0,0-3.726-1.444,5.619,5.619,0,0,0-3.726,1.444,5.619,5.619,0,0,0-3.726-1.444,5.847,5.847,0,0,0-4.936,2.882h-.032c-3.315,0-6.012,3.018-6.012,6.728a7.389,7.389,0,0,0,.543,2.8,6.9,6.9,0,0,0-3.027,5.844,6.842,6.842,0,0,0,3.395,6.056,5.652,5.652,0,0,0-3.183,5.079,5.735,5.735,0,0,0,6.239,5.645v1.006a16.856,16.856,0,0,0,4.893,11.918,17.163,17.163,0,0,0,1.992,1.726v2.936a2.565,2.565,0,0,1-1.765,2.441l-16.761,5.524a13.85,13.85,0,0,0-9.528,13.177v29.924a1.541,1.541,0,0,0,1.542,1.541,1.541,1.541,0,0,0,1.541-1.541v-29.924a10.773,10.773,0,0,1,7.411-10.249l13.626-4.491a16.9,16.9,0,0,0,12.156,7.418v10.528a3.6,3.6,0,0,0,3.6,3.6h9.807l1.952,2.81a1.541,1.541,0,0,0,2.145.386,1.541,1.541,0,0,0,.386-2.145l-1.206-1.735,6.175-5.232,13.08,16.552a4.615,4.615,0,0,1,.789,4.319,4.615,4.615,0,0,1-3.134,3.073,4.673,4.673,0,0,1-5.172-1.818l-6.389-9.2a1.541,1.541,0,0,0-2.145-.386,1.541,1.541,0,0,0-.386,2.145l1.978,2.847v11.5A1.541,1.541,0,0,0-209.1-81.95a1.541,1.541,0,0,0,1.541-1.541v-7.065l1.328,1.911a7.772,7.772,0,0,0,8.577,3.015,7.755,7.755,0,0,0,5.2-5.1A7.763,7.763,0,0,0-192.142-94m-59.293-4.024a1.542,1.542,0,0,0-1.541,1.541v12.993a1.541,1.541,0,0,0,1.541,1.541,1.541,1.541,0,0,0,1.541-1.541V-96.485a1.541,1.541,0,0,0-1.541-1.541m32.987-31.4a1.541,1.541,0,0,0,1.541-1.541,1.541,1.541,0,0,0-1.541-1.541,1.541,1.541,0,0,0-1.541,1.541,1.541,1.541,0,0,0,1.541,1.541m-20.8-27.058v2.975a1.541,1.541,0,0,0,1.541,1.541,1.541,1.541,0,0,0,1.541-1.541v-2.975a1.541,1.541,0,0,0-1.541-1.541,1.541,1.541,0,0,0-1.541,1.541" transform="translate(583.211 2249.18)" fill="#081d52"/>
      </g>
    </g>
    <g id="Group_15" data-name="Group 15" transform="translate(-1699 2853.5) rotate(-90)">
      <rect id="Rectangle_26" data-name="Rectangle 26" width="40" height="40" rx="20" transform="translate(576 2090)" fill="#235eab"/>
      <path id="Polygon_3" data-name="Polygon 3" d="M9.5,0,19,17H0Z" transform="translate(605 2101) rotate(90)" fill="#fff"/>
    </g>
    <g id="enter_recipient" transform="translate(745.5 2372)">
      <path id="Path_63273" data-name="Path 63273" d="M174.383,149.61H131.891A2.891,2.891,0,0,1,129,146.719V92.954a2.891,2.891,0,0,1,2.891-2.891h42.492a2.891,2.891,0,0,1,2.891,2.891v53.766A2.891,2.891,0,0,1,174.383,149.61Z" transform="translate(-115.983 -77.046)" fill="#cff0ff"/>
      <path id="Path_63274" data-name="Path 63274" d="M134.383,109.61H91.891A2.891,2.891,0,0,1,89,106.719V52.954a2.891,2.891,0,0,1,2.891-2.891h42.492a2.891,2.891,0,0,1,2.891,2.891v53.766A2.891,2.891,0,0,1,134.383,109.61Z" transform="translate(-81.764 -42.827)" fill="#cff0ff"/>
      <path id="Path_63275" data-name="Path 63275" d="M94.32,69.547H51.828a2.891,2.891,0,0,1-2.891-2.891V12.891A2.891,2.891,0,0,1,51.828,10H94.32a2.891,2.891,0,0,1,2.891,2.891V66.656A2.891,2.891,0,0,1,94.32,69.547Z" transform="translate(-47.492 -8.555)" fill="#fff"/>
      <path id="Path_63276" data-name="Path 63276" d="M104.94,84h13.875V97.875H104.94Z" transform="translate(-95.401 -71.859)" fill="#cff0ff"/>
      <path id="Path_63277" data-name="Path 63277" d="M85.765,62.437H43.273A4.341,4.341,0,0,1,38.937,58.1V31.267a1.445,1.445,0,1,1,2.891,0V58.1a1.447,1.447,0,0,0,1.445,1.445H85.765A1.447,1.447,0,0,0,87.21,58.1V4.336a1.447,1.447,0,0,0-1.445-1.445H43.273a1.447,1.447,0,0,0-1.445,1.445V19.078a1.445,1.445,0,0,1-2.891,0V4.336A4.341,4.341,0,0,1,43.273,0H85.765A4.341,4.341,0,0,1,90.1,4.336V58.1A4.341,4.341,0,0,1,85.765,62.437Z" transform="translate(-38.937)" fill="#24afea"/>
      <path id="Path_63278" data-name="Path 63278" d="M40.382,61.268a1.446,1.446,0,1,1,1.022-.423A1.456,1.456,0,0,1,40.382,61.268Zm5.79,41.232a1.446,1.446,0,1,1,1.022-.423A1.45,1.45,0,0,1,46.172,102.5Zm45.383,0h-39.6a1.445,1.445,0,1,1,0-2.891h39.6A1.447,1.447,0,0,0,93,98.165V41.508a1.445,1.445,0,0,1,2.891,0V98.165A4.341,4.341,0,0,1,91.555,102.5Z" transform="translate(-38.937 -34.273)" fill="#24afea"/>
      <path id="Path_63279" data-name="Path 63279" d="M145.252,137.3H99.869a1.445,1.445,0,1,1,0-2.891h45.383a1.447,1.447,0,0,0,1.445-1.445V76.313a1.445,1.445,0,0,1,2.891,0v56.656A4.341,4.341,0,0,1,145.252,137.3ZM110.257,90.766H96.382a1.445,1.445,0,0,1-1.445-1.445V75.445A1.445,1.445,0,0,1,96.382,74h13.875a1.445,1.445,0,0,1,1.445,1.445V89.32A1.445,1.445,0,0,1,110.257,90.766Zm-12.43-2.891h10.984V76.891H97.828Zm1.893,16.784a1.446,1.446,0,0,1-1.022-.423l-2.809-2.809a1.445,1.445,0,1,1,2.044-2.044l1.786,1.787,3.842-3.842a1.445,1.445,0,1,1,2.044,2.044l-4.864,4.864a1.446,1.446,0,0,1-1.022.423Z" transform="translate(-86.843 -63.305)" fill="#24afea"/>
      <path id="Path_63280" data-name="Path 63280" d="M132.424,102.184H115.562a1.445,1.445,0,1,1,0-2.891h16.862a1.445,1.445,0,1,1,0,2.891ZM131.6,76.891H121.487a1.445,1.445,0,0,1,0-2.891H131.6a1.445,1.445,0,1,1,0,2.891Zm0,6.938H121.487a1.445,1.445,0,1,1,0-2.891H131.6a1.445,1.445,0,1,1,0,2.891Zm0,6.938H121.487a1.445,1.445,0,1,1,0-2.891H131.6a1.445,1.445,0,1,1,0,2.891ZM102.857,115.7a1.446,1.446,0,0,1-1.022-.423l-2.809-2.809a1.445,1.445,0,0,1,2.044-2.044l1.786,1.787,3.842-3.842a1.445,1.445,0,0,1,2.044,2.044l-4.864,4.864A1.446,1.446,0,0,1,102.857,115.7Zm29.567-2.528H115.562a1.445,1.445,0,1,1,0-2.891h16.862a1.445,1.445,0,1,1,0,2.891Z" transform="translate(-89.98 -63.305)" fill="#224295"/>
    </g>
    <g id="make_payment-2" data-name="make_payment" transform="translate(965.5 2125)">
      <path id="Path_63281" data-name="Path 63281" d="M10,230.4a3.281,3.281,0,0,0,3.281,3.281H87.437a3.281,3.281,0,0,0,3.281-3.281V202.93H10Z" transform="translate(-8.359 -179.82)" fill="#fff"/>
      <path id="Path_63282" data-name="Path 63282" d="M10,132.93H90.719v11.484H10Z" transform="translate(-8.359 -121.305)" fill="#cff0ff"/>
      <path id="Path_63283" data-name="Path 63283" d="M90.719,75.35a3.281,3.281,0,0,0-3.281-3.281H13.281A3.281,3.281,0,0,0,10,75.35v6.7H90.719Z" transform="translate(-8.359 -70.429)" fill="#fff"/>
      <ellipse id="Ellipse_17" data-name="Ellipse 17" cx="15.34" cy="15.34" rx="15.34" ry="15.34" transform="translate(42.954 31.313)" fill="#fff"/>
      <path id="Path_63284" data-name="Path 63284" d="M79.078,62.07h-29.7a1.641,1.641,0,1,0,0,3.281h29.7a1.642,1.642,0,0,1,1.641,1.641v5.063H3.281V66.992a1.642,1.642,0,0,1,1.641-1.641h29.7a1.641,1.641,0,1,0,0-3.281H4.922A4.927,4.927,0,0,0,0,66.992v45.655a4.927,4.927,0,0,0,4.922,4.922H43.805a16.971,16.971,0,0,0,28.978,0h6.3A4.927,4.927,0,0,0,84,112.647V66.992A4.927,4.927,0,0,0,79.078,62.07Zm1.641,13.266v8.2H3.281v-8.2ZM58.294,122.422a13.7,13.7,0,1,1,13.7-13.7A13.715,13.715,0,0,1,58.294,122.422Zm20.784-8.134H74.337a16.98,16.98,0,1,0-32.086,0H4.922a1.642,1.642,0,0,1-1.641-1.641V86.82H80.719v25.827A1.642,1.642,0,0,1,79.078,114.288Z" transform="translate(0 -62.07)" fill="#24afea"/>
      <circle id="Ellipse_18" data-name="Ellipse 18" cx="1.654" cy="1.654" r="1.654" transform="translate(40.346 0.092)" fill="#24afea"/>
      <path id="Path_63285" data-name="Path 63285" d="M51.641,286.271H64.447a1.641,1.641,0,1,0,0-3.281H51.641a1.641,1.641,0,1,0,0,3.281Zm24.385,4.438H51.641a1.641,1.641,0,0,0,0,3.281H76.026a1.641,1.641,0,0,0,0-3.281Zm24.065,1a1.974,1.974,0,1,1,1.369-3.395,1.641,1.641,0,1,0,2.282-2.358,5.23,5.23,0,0,0-2.01-1.215v-.169a1.641,1.641,0,1,0-3.281,0v.171a5.255,5.255,0,0,0,1.641,10.247,1.974,1.974,0,1,1-1.369,3.395,1.641,1.641,0,0,0-2.282,2.358,5.23,5.23,0,0,0,2.01,1.215v.169a1.641,1.641,0,0,0,3.281,0v-.171a5.255,5.255,0,0,0-1.64-10.247Z" transform="translate(-41.797 -246.695)" fill="#224295"/>
    </g>
    <g id="Group_16" data-name="Group 16" transform="translate(669.5 2297.5) rotate(90)">
      <rect id="Rectangle_26-2" data-name="Rectangle 26" width="40" height="40" rx="20" fill="#2254a3"/>
      <path id="Polygon_3-2" data-name="Polygon 3" d="M9.5,0,19,17H0Z" transform="translate(30.143 10.5) rotate(90)" fill="#fff"/>
    </g>
    <g id="Group_17" data-name="Group 17" transform="translate(-1222 2855.5) rotate(-90)">
      <rect id="Rectangle_26-3" data-name="Rectangle 26" width="40" height="40" rx="19" transform="translate(576 2090)" fill="#234597"/>
      <path id="Polygon_3-3" data-name="Polygon 3" d="M9.5,0,19,17H0Z" transform="translate(605 2101) rotate(90)" fill="#fff"/>
    </g>
    <g id="Group_18" data-name="Group 18" transform="translate(3237 1725.546) rotate(90)">
      <rect id="Rectangle_26-4" data-name="Rectangle 26" width="40" height="40" rx="20" transform="translate(576 2090)" fill="#224295"/>
      <path id="Polygon_3-4" data-name="Polygon 3" d="M9.5,0,19,17H0Z" transform="translate(605 2101) rotate(90)" fill="#fff"/>
    </g>
    <text id="Enter_Amount" data-name="Enter Amount" transform="translate(473 2093)" fill="#fff" font-size="18" font-family="Inter-Bold, Inter" font-weight="700"><tspan x="0" y="0">Enter Amount</tspan></text>
    <g id="enter_amount-2" data-name="enter_amount" transform="translate(221.993 51)">
      <path id="Path_63242" data-name="Path 63242" d="M235.952,440.832h-8.333a1.076,1.076,0,0,1-1.077-1.076V426.979h10.486v12.777A1.076,1.076,0,0,1,235.952,440.832Z" transform="translate(79.296 1715.616)" fill="#cff0ff"/>
      <path id="Path_63243" data-name="Path 63243" d="M145.9,123.741H83.707l1.014-2.668a9.074,9.074,0,0,1,8.483-5.852h43.2a9.075,9.075,0,0,1,8.483,5.852Z" transform="translate(196.28 1970.95)" fill="#cff0ff"/>
      <path id="Path_63244" data-name="Path 63244" d="M358.756,121.074a9.074,9.074,0,0,0-8.483-5.852h-5.43a9.075,9.075,0,0,1,8.483,5.852l1.014,2.668h5.43Z" transform="translate(-17.594 1970.949)" fill="#cff0ff"/>
      <path id="Path_63245" data-name="Path 63245" d="M111.886,204.2H35.152a1.85,1.85,0,0,1-1.85-1.85v-38.2a1.85,1.85,0,0,1,1.85-1.85h76.734a1.85,1.85,0,0,1,1.85,1.85v38.2a1.85,1.85,0,0,1-1.85,1.85Z" transform="translate(237.562 1932.397)" fill="#cff0ff"/>
      <path id="Path_63246" data-name="Path 63246" d="M442.927,162.294H437.5a1.85,1.85,0,0,1,1.85,1.85v38.2a1.85,1.85,0,0,1-1.85,1.85h5.43a1.85,1.85,0,0,0,1.85-1.85v-38.2A1.85,1.85,0,0,0,442.927,162.294Z" transform="translate(-93.478 1932.397)" fill="#cff0ff"/>
      <path id="Path_63247" data-name="Path 63247" d="M139.013,196.8v29.415H72.92V196.8Z" transform="translate(205.115 1904.137)" fill="#fff"/>
      <path id="Path_63249" data-name="Path 63249" d="M106.156,234.726l-.754.754a.852.852,0,0,1-.566.212,1.138,1.138,0,0,1-.99-1.226,1.324,1.324,0,0,1,.589-1.108l2.782-2.122a.958.958,0,0,1,.637-.236c.637,0,1.367.377,1.367.99v15.325c0,.637-.778.967-1.532.967-.778,0-1.533-.33-1.533-.967Zm9.69,12.071c0,.259-.047.519-1.3,3.442a.664.664,0,0,1-.637.4c-.424,0-1.014-.283-1.014-.8a.645.645,0,0,1,.094-.33l.542-1.25a1.649,1.649,0,0,1-.872-1.438,1.591,1.591,0,1,1,3.183-.024Zm2.9-10.02v-.33c0-3.937,2.428-5.4,5.517-5.4,3.112,0,5.564,1.462,5.564,5.4v6.578c0,3.937-2.5,5.4-5.705,5.4-3.749,0-5.375-2.334-5.375-4.314,0-.967.471-1.273,1.438-1.273.849,0,1.6.236,1.6,1.155,0,1.108,1.108,1.745,2.428,1.745,1.579,0,2.546-.849,2.546-2.711v-2.57a3.88,3.88,0,0,1-3.136,1.2C120.963,241.657,118.746,240.5,118.746,236.777Zm8.016-.519c0-1.863-.943-2.711-2.5-2.711-1.533,0-2.452.849-2.452,2.711v.306c0,1.957.919,2.688,2.476,2.688a2.186,2.186,0,0,0,2.476-2.476Zm6.366.519v-.33c0-3.937,2.428-5.4,5.517-5.4,3.112,0,5.564,1.462,5.564,5.4v6.578c0,3.937-2.5,5.4-5.705,5.4-3.749,0-5.375-2.334-5.375-4.314,0-.967.471-1.273,1.438-1.273.849,0,1.6.236,1.6,1.155,0,1.108,1.108,1.745,2.428,1.745,1.579,0,2.546-.849,2.546-2.711v-2.57a3.88,3.88,0,0,1-3.136,1.2C135.344,241.657,133.128,240.5,133.128,236.777Zm8.016-.519c0-1.863-.943-2.711-2.5-2.711-1.533,0-2.452.849-2.452,2.711v.306c0,1.957.919,2.688,2.476,2.688a2.186,2.186,0,0,0,2.476-2.476Zm6.366.519v-.33c0-3.937,2.428-5.4,5.517-5.4,3.112,0,5.564,1.462,5.564,5.4v6.578c0,3.937-2.5,5.4-5.705,5.4-3.749,0-5.375-2.334-5.375-4.314,0-.967.471-1.273,1.438-1.273.849,0,1.6.236,1.6,1.155,0,1.108,1.108,1.745,2.428,1.745,1.58,0,2.546-.849,2.546-2.711v-2.57a3.88,3.88,0,0,1-3.136,1.2C149.726,241.657,147.51,240.5,147.51,236.777Zm8.016-.519c0-1.863-.943-2.711-2.5-2.711-1.533,0-2.452.849-2.452,2.711v.306c0,1.957.919,2.688,2.476,2.688a2.186,2.186,0,0,0,2.476-2.476Z" transform="translate(179.786 1876.125)" fill="#224295"/>
      <path id="Path_63250" data-name="Path 63250" d="M203.6,399.826H185.324a4.353,4.353,0,0,1-4.353-4.353v-1.647h26.982v1.647A4.354,4.354,0,0,1,203.6,399.826Z" transform="translate(116.619 1742.769)" fill="#cff0ff"/>
      <circle id="Ellipse_16" data-name="Ellipse 16" cx="11.295" cy="11.295" r="11.295" transform="translate(295.102 2077.973) rotate(-45)" fill="#fff"/>
      <path id="Path_63252" data-name="Path 63252" d="M240.7,48.936c-1.676-.056-3.044-.922-3.044-1.815,0-.475.419-1.173.95-1.173.587,0,1.061.824,2.095,1.005V44.691c-1.285-.489-2.793-1.089-2.793-2.877a2.856,2.856,0,0,1,2.793-2.835v-.391c0-.2.223-.377.531-.377.265,0,.531.182.531.377v.349c.866.028,2.5.251,2.5,1.215,0,.377-.251,1.145-.866,1.145-.461,0-.726-.447-1.634-.517V42.82c1.271.475,2.751,1.131,2.751,3.017a2.968,2.968,0,0,1-2.751,3.044v.405c0,.2-.265.377-.531.377-.307,0-.531-.182-.531-.377Zm.14-6.452V40.822c-.628.126-.894.447-.894.782C239.946,42.01,240.309,42.261,240.84,42.484Zm.782,2.584v1.871c.475-.112.852-.377.852-.88C242.474,45.6,242.125,45.305,241.622,45.068Z" transform="translate(69.984 2033.671)" fill="#224295"/>
      <path id="Path_63253" data-name="Path 63253" d="M105.743,28.016H99.406l-.681-1.793A10.487,10.487,0,0,0,88.974,19.5H78.008a12.652,12.652,0,1,0-21.265,0H45.778a10.487,10.487,0,0,0-9.752,6.727l-.681,1.793H29.009A3.212,3.212,0,0,0,25.8,31.224v38.2a3.211,3.211,0,0,0,3.208,3.208H52.527v.29a5.717,5.717,0,0,0,5.711,5.711h2.537V90.055a2.437,2.437,0,0,0,2.434,2.434h8.333a2.437,2.437,0,0,0,2.434-2.434V78.635h2.537a5.717,5.717,0,0,0,5.711-5.711v-.29h2.6a1.357,1.357,0,1,0,0-2.715H29.009a.494.494,0,0,1-.493-.493v-38.2a.494.494,0,0,1,.493-.493h76.734a.494.494,0,0,1,.493.493v38.2a.493.493,0,0,1-.493.493H90.252a1.357,1.357,0,0,0,0,2.715h15.49a3.211,3.211,0,0,0,3.208-3.208v-38.2A3.212,3.212,0,0,0,105.743,28.016ZM71.261,89.774H63.49V78.635h7.771Zm8.248-16.849a3,3,0,0,1-3,3H58.238a3,3,0,0,1-3-3v-.29H79.509v.29ZM67.376,2.715a9.937,9.937,0,1,1-9.937,9.937A9.949,9.949,0,0,1,67.376,2.715ZM38.564,27.187a7.758,7.758,0,0,1,7.214-4.976H58.956a1.368,1.368,0,0,0,.137-.007,12.614,12.614,0,0,0,16.557.007H88.973a7.758,7.758,0,0,1,7.214,4.976l.315.828H38.249Z" transform="translate(243.706 2065.318)" fill="#24afea"/>
      <path id="Path_63254" data-name="Path 63254" d="M76.246,192.014a1.357,1.357,0,0,0,0-2.715H66.777a1.357,1.357,0,0,0-1.357,1.357v29.415a1.357,1.357,0,0,0,1.357,1.357h66.093a1.357,1.357,0,0,0,1.357-1.357V190.656a1.357,1.357,0,0,0-1.357-1.357h-51.2a1.357,1.357,0,1,0,0,2.715h49.838v26.7H68.135v-26.7Z" transform="translate(211.257 1910.279)" fill="#24afea"/>
    </g>
    <text id="_1" data-name="1" transform="translate(397 2542)" fill="#fff" font-size="48" font-family="Inter-Bold, Inter" font-weight="700" opacity="0.26"><tspan x="0" y="0">1</tspan></text>
    <text id="_2" data-name="2" transform="translate(519 2065)" fill="#fff" font-size="48" font-family="Inter-Bold, Inter" font-weight="700" opacity="0.26"><tspan x="0" y="0">2</tspan></text>
    <text id="_3" data-name="3" transform="translate(761 2542)" fill="#fff" font-size="48" font-family="Inter-Bold, Inter" font-weight="700" opacity="0.26"><tspan x="0" y="0">3</tspan></text>
    <text id="_4" data-name="4" transform="translate(991 2065)" fill="#fff" font-size="48" font-family="Inter-Bold, Inter" font-weight="700" opacity="0.26"><tspan x="0" y="0">4</tspan></text>
  </g>
</svg>
